<?xml version="1.0"?>
<svg xmlns="http://www.w3.org/2000/svg" xmlns:xlink="http://www.w3.org/1999/xlink" xmlns:svgjs="http://svgjs.com/svgjs" version="1.1" width="512" height="512" x="0" y="0" viewBox="0 0 512 512" style="enable-background:new 0 0 512 512" xml:space="preserve" class=""><g><g xmlns="http://www.w3.org/2000/svg"><path d="m101 239.129v-56.629l-34-25.5c-6.627-4.971-7.971-14.373-3-21 4.971-6.626 14.373-7.97 21-3l31 23.25 31-23.25c6.628-4.971 16.029-3.627 21 3s3.627 16.029-3 21l-34 25.5v56.629c50.816-5.911 90-41.382 90-84.129 0-22.467-10.632-43.502-30-59.479v-20.521c0-41.355-33.645-75-75-75s-75 33.645-75 75v20.521c-19.368 15.977-30 37.012-30 59.479 0 42.747 39.184 78.218 90 84.129z" fill="#ffffff" data-original="#000000" style=""/><path d="m381 239.129v-56.629l-34-25.5c-6.627-4.971-7.971-14.373-3-21s14.372-7.971 21-3l31 23.25 31-23.25c6.627-4.97 16.029-3.626 21 3 4.971 6.627 3.627 16.029-3 21l-34 25.5v56.629c50.816-5.911 90-41.382 90-84.129 0-22.467-10.632-43.502-30-59.479v-20.521c0-41.355-33.645-75-75-75s-75 33.645-75 75v20.521c-19.368 15.977-30 37.012-30 59.479 0 42.747 39.184 78.218 90 84.129z" fill="#ffffff" data-original="#000000" style=""/><path d="m101 239.129v30.549c.618.555 1.227 1.123 1.819 1.715l25.001 25.001c1.13 1.13 2.187 2.313 3.18 3.537v-60.802c-4.901.57-9.907.871-15 .871s-10.099-.301-15-.871z" fill="#ffffff" data-original="#000000" style=""/><path d="m381 239.129v60.801c.992-1.224 2.049-2.406 3.179-3.535l25.001-25.001c.592-.592 1.201-1.161 1.82-1.716v-30.549c-4.901.57-9.907.871-15 .871s-10.099-.301-15-.871z" fill="#ffffff" data-original="#000000" style=""/><path d="m141 352h45v90h-45z" fill="#ffffff" data-original="#000000" style=""/><path d="m326 352h45v90h-45z" fill="#ffffff" data-original="#000000" style=""/><path d="m497 482h-16v-153.787c0-3.978-1.58-7.793-4.393-10.607l-25-25c-5.858-5.858-15.355-5.858-21.213 0l-25 25c-2.813 2.813-4.393 6.628-4.393 10.607v153.787h-105.001v-153.787c0-3.978-1.58-7.793-4.393-10.607l-25-25c-5.858-5.858-15.355-5.858-21.213 0l-25 25c-2.813 2.813-4.393 6.628-4.393 10.607v153.787h-105.001v-153.787c0-3.978-1.58-7.793-4.393-10.607l-25-25c-5.858-5.858-15.355-5.858-21.213 0l-25 25c-2.814 2.814-4.394 6.629-4.394 10.607v153.787h-16c-8.284 0-15 6.716-15 15s6.716 15 15 15h482c8.284 0 15-6.716 15-15s-6.716-15-15-15z" fill="#ffffff" data-original="#000000" style=""/></g></g></svg>
