<?xml version="1.0"?>
<svg xmlns="http://www.w3.org/2000/svg" xmlns:xlink="http://www.w3.org/1999/xlink" xmlns:svgjs="http://svgjs.com/svgjs" version="1.1" width="512" height="512" x="0" y="0" viewBox="0 0 512 512" style="enable-background:new 0 0 512 512" xml:space="preserve" class=""><g>
<g xmlns="http://www.w3.org/2000/svg">
	<g>
		<path d="M484.334,482V0h-83.975L288.6,117.077V482h-30V143.747l-111.599,116.91V482H70.5v-31.743    c23.336-6.562,40.5-28.019,40.5-53.423c0-30.603-24.897-55.5-55.5-55.5c-30.603,0-55.5,24.896-55.5,55.499    c0,25.405,17.164,46.862,40.5,53.423V482H0v30h512v-30H484.334z M217.85,426.667h-30V384h30V426.667z M217.85,330.667h-30V288h30    V330.667z M373.116,426.667h-30V384h30V426.667z M373.116,330.667h-30V288h30V330.667z M373.116,234.667h-30V192h30V234.667z     M429.817,426.667h-30V384h30V426.667z M429.817,330.667h-30V288h30V330.667z M429.817,234.667h-30V192h30V234.667z     M429.817,138.667h-30V96h30V138.667z" fill="#ffffff" data-original="#000000" style="" class=""/>
	</g>
</g>
<g xmlns="http://www.w3.org/2000/svg">
</g>
<g xmlns="http://www.w3.org/2000/svg">
</g>
<g xmlns="http://www.w3.org/2000/svg">
</g>
<g xmlns="http://www.w3.org/2000/svg">
</g>
<g xmlns="http://www.w3.org/2000/svg">
</g>
<g xmlns="http://www.w3.org/2000/svg">
</g>
<g xmlns="http://www.w3.org/2000/svg">
</g>
<g xmlns="http://www.w3.org/2000/svg">
</g>
<g xmlns="http://www.w3.org/2000/svg">
</g>
<g xmlns="http://www.w3.org/2000/svg">
</g>
<g xmlns="http://www.w3.org/2000/svg">
</g>
<g xmlns="http://www.w3.org/2000/svg">
</g>
<g xmlns="http://www.w3.org/2000/svg">
</g>
<g xmlns="http://www.w3.org/2000/svg">
</g>
<g xmlns="http://www.w3.org/2000/svg">
</g>
</g></svg>
