<?xml version="1.0"?>
<svg xmlns="http://www.w3.org/2000/svg" xmlns:xlink="http://www.w3.org/1999/xlink" xmlns:svgjs="http://svgjs.com/svgjs" version="1.1" width="512" height="512" x="0" y="0" viewBox="0 0 512.009 512.009" style="enable-background:new 0 0 512 512" xml:space="preserve"><g><g xmlns="http://www.w3.org/2000/svg"><path d="m512.009 86.219c0-41.562-33.813-75.375-75.376-75.375s-75.376 33.813-75.376 75.375 33.813 75.376 75.376 75.376 75.376-33.814 75.376-75.376zm-60.376 45.128h-30v-60.25h-14.124v-30h44.124z" fill="#5340fe" data-original="#000000" style=""/><path d="m427.458 191.595h-343.391l9.848 49.237h323.287z" fill="#5340fe" data-original="#000000" style=""/><path d="m410.953 270.832h-311.038l16.033 80.165c4.204 21.019 22.813 36.274 44.249 36.274h186.18c8.34 0 15.124 6.785 15.124 15.125s-6.784 15.124-15.124 15.124h-225.877v30h38.485c-3.756 5.504-5.955 12.155-5.955 19.322 0 18.956 15.367 34.323 34.323 34.323s34.323-15.367 34.323-34.323c0-7.166-2.199-13.818-5.955-19.322h72.16c-3.756 5.504-5.955 12.155-5.955 19.322 0 18.956 15.367 34.323 34.323 34.323s34.323-15.367 34.323-34.323c0-7.166-2.199-13.818-5.955-19.322h1.758c24.882 0 45.124-20.242 45.124-45.124s-20.242-45.125-45.124-45.125h-186.18c-7.185 0-13.422-5.113-14.831-12.158l-5.056-25.281h260.438z" fill="#5340fe" data-original="#000000" style=""/><path d="m363.076 161.595c-12.679-12.376-22.256-27.912-27.446-45.323h-236.032l-4.795-23.975c-4.204-21.02-22.813-36.275-44.249-36.275h-50.554v30h50.554c7.185 0 13.422 5.114 14.831 12.159l12.683 63.414z" fill="#5340fe" data-original="#000000" style=""/></g></g></svg>
