<?xml version="1.0"?>
<svg xmlns="http://www.w3.org/2000/svg" xmlns:xlink="http://www.w3.org/1999/xlink" xmlns:svgjs="http://svgjs.com/svgjs" version="1.1" width="512" height="512" x="0" y="0" viewBox="0 0 512 512" style="enable-background:new 0 0 512 512" xml:space="preserve"><g><g xmlns="http://www.w3.org/2000/svg"><path d="m512 256c0-60.488-21.101-116.132-56.31-159.989l-128.709 222.931h177.181c5.111-20.145 7.838-41.23 7.838-62.942z" fill="#ffffff" data-original="#000000" style=""/><path d="m346 226 88.509-153.303c-46.15-44.955-109.146-72.697-178.509-72.697-13.183 0-26.135 1.003-38.787 2.935z" fill="#ffffff" data-original="#000000" style=""/><path d="m166 286-88.509 153.302c46.15 44.956 109.146 72.698 178.509 72.698 13.183 0 26.135-1.003 38.787-2.934z" fill="#ffffff" data-original="#000000" style=""/><path d="m236.981 348.942 88.592 153.446c77.375-21.878 139.971-79.308 168.959-153.447z" fill="#ffffff" data-original="#000000" style=""/><path d="m275.019 163.058-88.592-153.447c-77.374 21.879-139.971 79.308-168.959 153.447z" fill="#ffffff" data-original="#000000" style=""/><path d="m153.01 248.5 32.01-55.442h-177.181c-5.112 20.144-7.839 41.23-7.839 62.942 0 60.488 21.101 116.132 56.31 159.989z" fill="#ffffff" data-original="#000000" style=""/></g></g></svg>
