<?xml version="1.0"?>
<svg xmlns="http://www.w3.org/2000/svg" xmlns:xlink="http://www.w3.org/1999/xlink" xmlns:svgjs="http://svgjs.com/svgjs" version="1.1" width="512" height="512" x="0" y="0" viewBox="0 0 93.16 93.16" style="enable-background:new 0 0 512 512" xml:space="preserve" class=""><g>
<g xmlns="http://www.w3.org/2000/svg">
	<g>
		<path d="M52.335,44.88c-0.213-0.144-21.564-14.322-46.309-20.476l-0.635-0.157L5.14,24.851c-0.391,0.942-1.117,2.717-1.603,4.06    c-0.003,0-0.007-0.002-0.01-0.002C1.267,34.381,0,40.367,0,46.654c0,24.519,18.949,44.6,43,46.43    c3.939-2.564,9.389-6.622,13.688-11.71c0.004-0.011,0.006-0.021,0.009-0.032c5.182-6.197,7.629-13.582,6.706-20.293    C62.528,54.702,58.805,49.262,52.335,44.88z M57.369,77.924c4.93-33.266-41.69-46.173-52.335-48.676    c0.33-0.888,0.791-2.057,1.262-3.204c24.208,6.168,44.983,19.961,45.188,20.099c6.093,4.129,9.596,9.215,10.408,15.114    C62.641,66.689,60.996,72.623,57.369,77.924z" fill="#ffffff" data-original="#000000" style=""/>
		<path d="M46.577,0.076C29.4,0.076,14.405,9.382,6.33,23.221c22.514,1.259,75.504,7.496,84.434,38.177    c1.545-4.635,2.396-9.588,2.396-14.743C93.16,20.929,72.305,0.076,46.577,0.076z" fill="#ffffff" data-original="#000000" style=""/>
	</g>
</g>
<g xmlns="http://www.w3.org/2000/svg">
</g>
<g xmlns="http://www.w3.org/2000/svg">
</g>
<g xmlns="http://www.w3.org/2000/svg">
</g>
<g xmlns="http://www.w3.org/2000/svg">
</g>
<g xmlns="http://www.w3.org/2000/svg">
</g>
<g xmlns="http://www.w3.org/2000/svg">
</g>
<g xmlns="http://www.w3.org/2000/svg">
</g>
<g xmlns="http://www.w3.org/2000/svg">
</g>
<g xmlns="http://www.w3.org/2000/svg">
</g>
<g xmlns="http://www.w3.org/2000/svg">
</g>
<g xmlns="http://www.w3.org/2000/svg">
</g>
<g xmlns="http://www.w3.org/2000/svg">
</g>
<g xmlns="http://www.w3.org/2000/svg">
</g>
<g xmlns="http://www.w3.org/2000/svg">
</g>
<g xmlns="http://www.w3.org/2000/svg">
</g>
</g></svg>
